<?xml version="1.0" encoding="UTF-8"?>
<svg id="Capa_1" data-name="Capa 1" xmlns="http://www.w3.org/2000/svg" viewBox="0 0 738.8 630.76">
  <defs>
    <style>
      .cls-1 {
        fill: #aa211f;
      }

      .cls-1, .cls-2, .cls-3 {
        stroke-width: 0px;
      }

      .cls-2 {
        fill: #116d2c;
      }

      .cls-3 {
        fill: #06368d;
      }
    </style>
  </defs>
  <g>
    <g>
      <polygon class="cls-1" points="209.57 66.24 271.65 66.24 197.25 268.22 312.47 268.22 296.14 314.86 117.98 314.86 209.57 66.24"/>
      <polygon class="cls-3" points="418.12 66.24 363.08 66.24 271.65 314.86 334.63 314.86 390.6 164.19 417.6 232.86 447.6 141.61 418.12 66.24"/>
      <polygon class="cls-2" points="588.85 0 502.55 103.55 532.41 103.55 483.43 233.23 455.98 163.04 426.47 255.42 449.84 314.86 516.55 314.86 596.31 103.55 621.5 103.55 588.85 0"/>
    </g>
    <g>
      <path class="cls-1" d="m6.76,524.28h6.69v46.84h-6.69v-46.84Z"/>
      <path class="cls-1" d="m56.25,539.24c2.65,2.61,3.98,6.44,3.98,11.48v20.41h-6.42v-19.67c0-3.43-.83-6.02-2.48-7.76-1.65-1.74-4.02-2.61-7.09-2.61-3.48,0-6.22,1.01-8.23,3.04-2.01,2.03-3.01,4.94-3.01,8.73v18.27h-6.42v-35.47h6.16v5.35c1.29-1.83,3.04-3.23,5.25-4.22,2.21-.98,4.72-1.47,7.53-1.47,4.51,0,8.09,1.3,10.74,3.92Z"/>
      <path class="cls-1" d="m73.95,570.36c-2.68-.78-4.77-1.77-6.29-2.98l2.68-5.09c1.56,1.12,3.46,2.01,5.69,2.68,2.23.67,4.48,1,6.76,1,5.62,0,8.43-1.61,8.43-4.82,0-1.07-.38-1.92-1.14-2.54-.76-.62-1.71-1.08-2.84-1.37s-2.76-.61-4.85-.97c-2.86-.45-5.19-.96-6.99-1.54s-3.36-1.56-4.65-2.95c-1.29-1.38-1.94-3.32-1.94-5.82,0-3.21,1.34-5.79,4.01-7.73,2.68-1.94,6.27-2.91,10.77-2.91,2.36,0,4.73.29,7.09.87s4.3,1.36,5.82,2.34l-2.74,5.09c-2.9-1.87-6.31-2.81-10.24-2.81-2.72,0-4.8.45-6.22,1.34-1.43.89-2.14,2.07-2.14,3.55,0,1.16.4,2.08,1.2,2.74.8.67,1.8,1.16,2.98,1.47,1.18.31,2.84.67,4.98,1.07,2.86.49,5.16,1.01,6.93,1.57,1.76.56,3.27,1.51,4.52,2.85,1.25,1.34,1.87,3.21,1.87,5.62,0,3.21-1.37,5.77-4.12,7.66-2.74,1.9-6.48,2.84-11.21,2.84-2.9,0-5.69-.39-8.37-1.17Z"/>
      <path class="cls-1" d="m125.61,569.05c-.94.8-2.1,1.42-3.48,1.84-1.38.42-2.81.64-4.28.64-3.57,0-6.34-.96-8.3-2.88-1.96-1.92-2.95-4.66-2.95-8.23v-19.47h-6.02v-5.29h6.02v-7.76h6.42v7.76h10.17v5.29h-10.17v19.21c0,1.92.48,3.39,1.44,4.42.96,1.03,2.33,1.54,4.12,1.54,1.96,0,3.64-.56,5.02-1.67l2.01,4.62Z"/>
      <path class="cls-1" d="m133.47,527.63c-.83-.8-1.24-1.78-1.24-2.94s.41-2.15,1.24-2.98c.83-.83,1.86-1.24,3.11-1.24s2.29.39,3.11,1.17c.83.78,1.24,1.75,1.24,2.91s-.41,2.22-1.24,3.04c-.83.83-1.86,1.24-3.11,1.24s-2.29-.4-3.11-1.2Zm-.1,8.03h6.42v35.47h-6.42v-35.47Z"/>
      <path class="cls-1" d="m171.99,569.05c-.94.8-2.1,1.42-3.48,1.84-1.38.42-2.81.64-4.28.64-3.57,0-6.34-.96-8.3-2.88-1.96-1.92-2.95-4.66-2.95-8.23v-19.47h-6.02v-5.29h6.02v-7.76h6.42v7.76h10.17v5.29h-10.17v19.21c0,1.92.48,3.39,1.44,4.42.96,1.03,2.33,1.54,4.12,1.54,1.96,0,3.64-.56,5.02-1.67l2.01,4.62Z"/>
      <path class="cls-1" d="m212.81,535.66v35.47h-6.09v-5.35c-1.29,1.83-3,3.24-5.12,4.25-2.12,1-4.43,1.5-6.93,1.5-4.73,0-8.45-1.3-11.18-3.91-2.72-2.61-4.08-6.46-4.08-11.54v-20.41h6.42v19.67c0,3.44.82,6.03,2.48,7.8,1.65,1.76,4.01,2.64,7.09,2.64,3.39,0,6.07-1.03,8.03-3.08,1.96-2.05,2.94-4.95,2.94-8.7v-18.34h6.42Z"/>
      <path class="cls-1" d="m230.84,569.19c-2.83-1.56-5.05-3.71-6.66-6.46s-2.41-5.86-2.41-9.34.8-6.59,2.41-9.33,3.83-4.89,6.66-6.42c2.83-1.54,6.06-2.31,9.67-2.31,3.21,0,6.08.65,8.6,1.94,2.52,1.29,4.47,3.17,5.86,5.62l-4.89,3.15c-1.12-1.7-2.5-2.97-4.15-3.81-1.65-.85-3.48-1.27-5.49-1.27-2.32,0-4.41.51-6.26,1.54-1.85,1.03-3.3,2.49-4.35,4.38-1.05,1.9-1.57,4.07-1.57,6.52s.52,4.7,1.57,6.59c1.05,1.9,2.5,3.36,4.35,4.38,1.85,1.03,3.94,1.54,6.26,1.54,2.01,0,3.84-.42,5.49-1.27,1.65-.85,3.03-2.12,4.15-3.81l4.89,3.08c-1.38,2.45-3.34,4.34-5.86,5.65-2.52,1.32-5.39,1.97-8.6,1.97-3.61,0-6.84-.78-9.67-2.34Z"/>
      <path class="cls-1" d="m263.36,527.63c-.83-.8-1.24-1.78-1.24-2.94s.41-2.15,1.24-2.98c.83-.83,1.86-1.24,3.11-1.24s2.29.39,3.11,1.17c.83.78,1.24,1.75,1.24,2.91s-.41,2.22-1.24,3.04c-.83.83-1.86,1.24-3.11,1.24s-2.29-.4-3.11-1.2Zm-.1,8.03h6.42v35.47h-6.42v-35.47Z"/>
      <path class="cls-1" d="m287.62,569.19c-2.81-1.56-5.01-3.71-6.59-6.46-1.58-2.74-2.38-5.86-2.38-9.34s.79-6.59,2.38-9.33c1.58-2.74,3.78-4.89,6.59-6.42,2.81-1.54,5.98-2.31,9.5-2.31s6.68.77,9.47,2.31c2.79,1.54,4.97,3.68,6.56,6.42,1.58,2.74,2.38,5.86,2.38,9.33s-.79,6.59-2.38,9.34c-1.58,2.74-3.77,4.9-6.56,6.46-2.79,1.56-5.95,2.34-9.47,2.34s-6.69-.78-9.5-2.34Zm15.63-4.85c1.81-1.05,3.22-2.52,4.25-4.42,1.03-1.9,1.54-4.07,1.54-6.53s-.51-4.63-1.54-6.52c-1.03-1.9-2.44-3.36-4.25-4.38-1.81-1.02-3.85-1.54-6.12-1.54s-4.32.51-6.12,1.54c-1.81,1.03-3.24,2.49-4.28,4.38-1.05,1.9-1.57,4.07-1.57,6.52s.52,4.63,1.57,6.53c1.05,1.9,2.48,3.37,4.28,4.42,1.81,1.05,3.85,1.57,6.12,1.57s4.32-.52,6.12-1.57Zm-2.11-42.53h8.16l-11.24,8.7h-6.02l9.1-8.7Z"/>
      <path class="cls-1" d="m354.11,539.24c2.65,2.61,3.98,6.44,3.98,11.48v20.41h-6.42v-19.67c0-3.43-.83-6.02-2.48-7.76-1.65-1.74-4.02-2.61-7.09-2.61-3.48,0-6.22,1.01-8.23,3.04-2.01,2.03-3.01,4.94-3.01,8.73v18.27h-6.42v-35.47h6.16v5.35c1.29-1.83,3.04-3.23,5.25-4.22,2.21-.98,4.72-1.47,7.53-1.47,4.51,0,8.09,1.3,10.74,3.92Z"/>
      <path class="cls-1" d="m395.63,530.11v16.33h23.49v5.75h-23.49v18.94h-6.69v-46.84h33.06v5.82h-26.37Z"/>
      <path class="cls-1" d="m429.93,527.63c-.83-.8-1.24-1.78-1.24-2.94s.41-2.15,1.24-2.98,1.86-1.24,3.11-1.24,2.29.39,3.11,1.17c.83.78,1.24,1.75,1.24,2.91s-.41,2.22-1.24,3.04c-.83.83-1.86,1.24-3.11,1.24s-2.29-.4-3.11-1.2Zm-.1,8.03h6.42v35.47h-6.42v-35.47Z"/>
      <path class="cls-1" d="m478.18,539.24c2.65,2.61,3.98,6.44,3.98,11.48v20.41h-6.43v-19.67c0-3.43-.83-6.02-2.48-7.76-1.65-1.74-4.02-2.61-7.09-2.61-3.48,0-6.22,1.01-8.23,3.04-2.01,2.03-3.01,4.94-3.01,8.73v18.27h-6.42v-35.47h6.16v5.35c1.29-1.83,3.04-3.23,5.25-4.22,2.21-.98,4.72-1.47,7.53-1.47,4.51,0,8.09,1.3,10.74,3.92Z"/>
      <path class="cls-1" d="m518.26,538.94c2.61,2.41,3.92,6,3.92,10.77v21.41h-6.09v-4.68c-1.07,1.65-2.6,2.91-4.58,3.78-1.99.87-4.34,1.3-7.06,1.3-3.97,0-7.15-.96-9.54-2.88-2.39-1.92-3.58-4.44-3.58-7.56s1.14-5.63,3.41-7.53c2.28-1.89,5.89-2.84,10.84-2.84h10.17v-1.27c0-2.77-.8-4.89-2.41-6.36s-3.97-2.21-7.09-2.21c-2.1,0-4.15.35-6.16,1.04-2.01.69-3.7,1.62-5.09,2.78l-2.68-4.82c1.83-1.47,4.02-2.6,6.56-3.38,2.54-.78,5.24-1.17,8.1-1.17,4.91,0,8.67,1.2,11.28,3.61Zm-6.39,26c1.78-1.09,3.08-2.64,3.88-4.65v-4.95h-9.9c-5.44,0-8.16,1.83-8.16,5.49,0,1.78.69,3.19,2.08,4.22,1.38,1.03,3.3,1.54,5.75,1.54s4.57-.55,6.36-1.64Z"/>
      <path class="cls-1" d="m563.77,539.24c2.65,2.61,3.98,6.44,3.98,11.48v20.41h-6.43v-19.67c0-3.43-.83-6.02-2.48-7.76-1.65-1.74-4.02-2.61-7.09-2.61-3.48,0-6.22,1.01-8.23,3.04-2.01,2.03-3.01,4.94-3.01,8.73v18.27h-6.42v-35.47h6.16v5.35c1.29-1.83,3.04-3.23,5.25-4.22,2.21-.98,4.72-1.47,7.53-1.47,4.51,0,8.09,1.3,10.74,3.92Z"/>
      <path class="cls-1" d="m585.65,569.19c-2.83-1.56-5.05-3.71-6.66-6.46-1.61-2.74-2.41-5.86-2.41-9.34s.8-6.59,2.41-9.33c1.61-2.74,3.83-4.89,6.66-6.42,2.83-1.54,6.06-2.31,9.67-2.31,3.21,0,6.08.65,8.6,1.94,2.52,1.29,4.47,3.17,5.85,5.62l-4.89,3.15c-1.11-1.7-2.5-2.97-4.15-3.81-1.65-.85-3.48-1.27-5.49-1.27-2.32,0-4.41.51-6.26,1.54-1.85,1.03-3.3,2.49-4.35,4.38-1.05,1.9-1.57,4.07-1.57,6.52s.52,4.7,1.57,6.59c1.05,1.9,2.5,3.36,4.35,4.38,1.85,1.03,3.94,1.54,6.26,1.54,2.01,0,3.84-.42,5.49-1.27,1.65-.85,3.03-2.12,4.15-3.81l4.89,3.08c-1.38,2.45-3.33,4.34-5.85,5.65-2.52,1.32-5.39,1.97-8.6,1.97-3.61,0-6.84-.78-9.67-2.34Z"/>
      <path class="cls-1" d="m618.18,527.63c-.83-.8-1.24-1.78-1.24-2.94s.41-2.15,1.24-2.98,1.86-1.24,3.11-1.24,2.29.39,3.11,1.17c.83.78,1.24,1.75,1.24,2.91s-.41,2.22-1.24,3.04c-.83.83-1.86,1.24-3.11,1.24s-2.29-.4-3.11-1.2Zm-.1,8.03h6.42v35.47h-6.42v-35.47Z"/>
      <path class="cls-1" d="m668.67,555.54h-28.78c.4,3.12,1.77,5.63,4.12,7.53,2.34,1.9,5.25,2.85,8.73,2.85,4.24,0,7.65-1.43,10.24-4.28l3.55,4.15c-1.61,1.87-3.6,3.3-5.99,4.28-2.39.98-5.05,1.47-8,1.47-3.75,0-7.07-.77-9.97-2.31-2.9-1.54-5.14-3.69-6.73-6.46-1.58-2.77-2.38-5.89-2.38-9.37s.77-6.54,2.31-9.3c1.54-2.77,3.66-4.92,6.36-6.46,2.7-1.54,5.74-2.31,9.13-2.31s6.41.77,9.07,2.31c2.65,1.54,4.73,3.69,6.22,6.46,1.49,2.77,2.24,5.93,2.24,9.5,0,.49-.05,1.14-.13,1.94Zm-25.13-11.98c-2.07,1.87-3.29,4.33-3.65,7.36h22.75c-.36-2.99-1.57-5.43-3.65-7.33s-4.65-2.85-7.73-2.85-5.65.94-7.73,2.81Z"/>
      <path class="cls-1" d="m688.81,536.93c2.19-1.07,4.84-1.61,7.96-1.61v6.22c-.36-.04-.85-.07-1.47-.07-3.48,0-6.21,1.04-8.2,3.11s-2.98,5.03-2.98,8.87v17.67h-6.42v-35.47h6.16v5.96c1.11-2.05,2.77-3.61,4.95-4.69Z"/>
      <path class="cls-1" d="m728.79,538.94c2.61,2.41,3.92,6,3.92,10.77v21.41h-6.09v-4.68c-1.07,1.65-2.6,2.91-4.58,3.78-1.99.87-4.34,1.3-7.06,1.3-3.97,0-7.15-.96-9.54-2.88-2.39-1.92-3.58-4.44-3.58-7.56s1.14-5.63,3.41-7.53c2.28-1.89,5.89-2.84,10.84-2.84h10.17v-1.27c0-2.77-.8-4.89-2.41-6.36s-3.97-2.21-7.09-2.21c-2.1,0-4.15.35-6.16,1.04-2.01.69-3.7,1.62-5.09,2.78l-2.68-4.82c1.83-1.47,4.02-2.6,6.56-3.38,2.54-.78,5.24-1.17,8.1-1.17,4.91,0,8.67,1.2,11.28,3.61Zm-6.39,26c1.78-1.09,3.08-2.64,3.88-4.65v-4.95h-9.9c-5.44,0-8.16,1.83-8.16,5.49,0,1.78.69,3.19,2.08,4.22,1.38,1.03,3.3,1.54,5.75,1.54s4.57-.55,6.36-1.64Z"/>
    </g>
    <g>
      <g>
        <path class="cls-3" d="m0,473.75v-106.26h26.86v92.92c0,7.6,1.52,11.32,6.76,11.32h39.7v27.54H22.81c-13.18,0-22.81-8.62-22.81-25.51Z"/>
        <path class="cls-3" d="m76.7,499.26l27.88-115.39c3.38-13.68,11.66-17.91,19.94-17.91s17.06,4.22,20.27,17.91l26.86,115.39h-28.21l-4.9-22.64h-28.72l-4.9,22.64h-28.21Zm47.47-89.88l-6.93,39.53h13.85l-6.93-39.53Z"/>
        <path class="cls-3" d="m310.86,367.49v113.02c0,13.51-5.24,20.44-15.88,20.44-5.07,0-12.5-1.69-19.09-17.06l-21.96-50.51v65.89h-26.86v-116.4c0-11.83,6.25-16.89,14.02-16.89,5.07,0,11.32,2.37,15.71,12.67l27.2,62.68v-73.83h26.86Z"/>
        <path class="cls-3" d="m320.32,499.26l27.88-115.39c3.38-13.68,11.66-17.91,19.94-17.91s17.06,4.22,20.27,17.91l26.86,115.39h-28.21l-4.9-22.64h-28.72l-4.9,22.64h-28.21Zm47.47-89.88l-6.93,39.53h13.85l-6.93-39.53Z"/>
        <path class="cls-3" d="m455.31,395.02c-5.24,0-6.76,3.72-6.76,11.15v54.23c0,7.6,1.52,11.32,6.76,11.32h39.7v27.54h-50.51c-13.18,0-22.81-8.62-22.81-25.51v-79.4c0-16.9,9.63-26.86,22.81-26.86h50.51v27.54h-39.7Z"/>
        <path class="cls-3" d="m536.74,499.26h-26.86v-131.77h26.86v131.77Z"/>
        <path class="cls-3" d="m637.43,473.75c0,16.89-9.63,25.51-22.81,25.51h-37.5c-13.18,0-22.81-9.97-22.81-26.86v-78.05c0-16.9,9.63-26.86,22.81-26.86h37.5c13.18,0,22.81,9.97,22.81,26.86v79.4Zm-56.26-13.35c0,7.6,1.52,11.32,8.11,11.32h14.53c5.24,0,6.93-3.72,6.93-11.32v-54.23c0-7.43-1.69-11.15-6.93-11.15h-14.53c-6.59,0-8.11,3.72-8.11,11.15v54.23Z"/>
        <path class="cls-3" d="m738.8,367.49v113.02c0,13.51-5.24,20.44-15.88,20.44-5.07,0-12.5-1.69-19.09-17.06l-21.96-50.51v65.89h-26.86v-116.4c0-11.83,6.25-16.89,14.02-16.89,5.07,0,11.32,2.37,15.71,12.67l27.2,62.68v-73.83h26.86Z"/>
      </g>
      <path class="cls-3" d="m594.48,359.1l7.21-10.03c.26-.36.67-.57,1.11-.57h14.71c1.25,0,1.85,1.54.92,2.38l-12.39,11.26c-.42.39-.98.6-1.55.6h-8.15c-1.88,0-2.96-2.12-1.87-3.65Z"/>
    </g>
  </g>
  <g>
    <path class="cls-3" d="m154.06,623.77l4.98-23.79h17.17l-.57,2.71h-13.99l-1.56,7.4h13.63l-.57,2.71h-13.63l-1.72,8.28h14.98l-.57,2.69h-18.16Z"/>
    <path class="cls-3" d="m176.11,617.88l2.94-.18c0,.84.13,1.56.39,2.16s.74,1.08,1.44,1.46c.7.38,1.51.57,2.44.57,1.3,0,2.27-.26,2.92-.78.65-.52.97-1.13.97-1.83,0-.51-.19-.99-.58-1.44-.4-.45-1.38-1.01-2.93-1.68-1.55-.67-2.55-1.13-2.98-1.4-.73-.44-1.27-.97-1.64-1.57-.37-.6-.55-1.29-.55-2.07,0-1.36.54-2.53,1.62-3.51s2.6-1.46,4.54-1.46c2.16,0,3.81.5,4.94,1.5,1.13,1,1.72,2.32,1.76,3.95l-2.87.19c-.04-1.04-.41-1.86-1.1-2.47-.69-.61-1.67-.91-2.94-.91-1.02,0-1.81.23-2.37.7s-.84.97-.84,1.51.24,1.02.73,1.43c.32.28,1.16.71,2.52,1.3,2.25.98,3.67,1.74,4.25,2.31.93.9,1.4,1.99,1.4,3.28,0,.86-.26,1.69-.79,2.52s-1.33,1.48-2.4,1.97c-1.08.49-2.34.74-3.81.74-1.99,0-3.68-.49-5.08-1.48-1.4-.98-2.06-2.59-1.98-4.8Z"/>
    <path class="cls-3" d="m199.32,621.38l-.49,2.4c-.7.18-1.39.28-2.04.28-1.17,0-2.1-.29-2.79-.86-.52-.43-.78-1.02-.78-1.77,0-.38.14-1.25.42-2.61l2.09-10.01h-2.32l.47-2.27h2.32l.89-4.24,3.36-2.03-1.31,6.27h2.89l-.49,2.27h-2.87l-2,9.53c-.25,1.21-.37,1.94-.37,2.17,0,.35.1.61.3.8.2.18.53.28.98.28.65,0,1.23-.06,1.74-.19Z"/>
    <path class="cls-3" d="m213.31,621.63c-1.02.88-2,1.52-2.94,1.92-.94.41-1.95.61-3.02.61-1.59,0-2.87-.47-3.85-1.4-.97-.94-1.46-2.13-1.46-3.59,0-.96.22-1.81.66-2.56s1.02-1.34,1.74-1.79c.73-.45,1.61-.77,2.66-.97.66-.13,1.91-.23,3.76-.31,1.84-.08,3.17-.27,3.97-.58.23-.8.34-1.47.34-2,0-.68-.25-1.22-.75-1.61-.68-.54-1.68-.81-2.99-.81-1.23,0-2.24.27-3.03.82-.79.55-1.36,1.32-1.71,2.33l-2.97-.26c.61-1.71,1.57-3.02,2.88-3.93,1.31-.91,2.97-1.36,4.97-1.36,2.13,0,3.82.51,5.06,1.52.95.76,1.43,1.74,1.43,2.96,0,.92-.13,1.98-.41,3.2l-.96,4.28c-.3,1.36-.45,2.47-.45,3.33,0,.54.12,1.32.36,2.34h-2.97c-.16-.56-.28-1.28-.34-2.14Zm1.09-6.59c-.41.16-.85.29-1.32.37-.47.09-1.26.18-2.36.28-1.71.15-2.92.34-3.62.58-.7.23-1.23.6-1.59,1.11-.36.51-.54,1.07-.54,1.69,0,.82.28,1.5.85,2.03.57.53,1.38.8,2.43.8.97,0,1.91-.26,2.81-.77s1.61-1.23,2.13-2.15c.52-.92.93-2.23,1.22-3.93Z"/>
    <path class="cls-3" d="m220.18,623.77l4.97-23.79h2.94l-1.77,8.5c.93-.86,1.77-1.46,2.53-1.81.76-.35,1.55-.53,2.37-.53,1.61,0,2.96.6,4.03,1.8,1.08,1.2,1.62,2.95,1.62,5.24,0,1.52-.22,2.92-.65,4.19s-.97,2.33-1.61,3.19c-.64.86-1.3,1.55-1.98,2.06s-1.38.9-2.09,1.15c-.71.25-1.4.38-2.06.38-1.14,0-2.14-.3-3-.9s-1.54-1.52-2.03-2.75l-.68,3.26h-2.58Zm4.35-7.08l-.02.55c0,1.47.35,2.59,1.05,3.36.7.77,1.58,1.15,2.63,1.15s1.97-.36,2.83-1.08,1.57-1.84,2.12-3.37c.55-1.52.83-2.93.83-4.22,0-1.45-.35-2.58-1.05-3.38s-1.56-1.2-2.59-1.2-2.03.41-2.92,1.22-1.63,2.07-2.22,3.77c-.44,1.27-.67,2.33-.67,3.18Z"/>
    <path class="cls-3" d="m238.55,623.77l3.6-17.23h2.94l-3.6,17.23h-2.94Zm4.28-20.47l.7-3.33h2.92l-.7,3.33h-2.92Z"/>
    <path class="cls-3" d="m245.82,623.77l4.97-23.79h2.94l-4.97,23.79h-2.94Z"/>
    <path class="cls-3" d="m253.32,623.77l3.6-17.23h2.94l-3.6,17.23h-2.94Zm4.28-20.47l.7-3.33h2.92l-.7,3.33h-2.92Z"/>
    <path class="cls-3" d="m272.43,621.27c-1.68,1.93-3.43,2.89-5.26,2.89-1.63,0-2.99-.6-4.08-1.81-1.09-1.21-1.63-2.96-1.63-5.25,0-2.1.43-4.02,1.29-5.75.86-1.74,1.94-3.04,3.23-3.9,1.29-.87,2.59-1.3,3.89-1.3,2.14,0,3.76,1.03,4.85,3.1l1.95-9.27h2.92l-4.97,23.79h-2.71l.52-2.5Zm-8.05-4.72c0,1.2.12,2.15.36,2.84.24.69.64,1.27,1.22,1.73.57.46,1.26.69,2.06.69,1.33,0,2.54-.69,3.62-2.08,1.45-1.84,2.17-4.11,2.17-6.82,0-1.36-.36-2.43-1.07-3.2-.71-.77-1.61-1.15-2.69-1.15-.7,0-1.34.16-1.92.47-.58.31-1.15.85-1.72,1.6-.57.75-1.05,1.71-1.44,2.87-.39,1.16-.58,2.17-.58,3.05Z"/>
    <path class="cls-3" d="m290.92,621.63c-1.02.88-2,1.52-2.94,1.92-.94.41-1.95.61-3.02.61-1.59,0-2.87-.47-3.85-1.4-.97-.94-1.46-2.13-1.46-3.59,0-.96.22-1.81.66-2.56s1.02-1.34,1.74-1.79c.73-.45,1.61-.77,2.66-.97.66-.13,1.91-.23,3.76-.31,1.84-.08,3.17-.27,3.97-.58.23-.8.34-1.47.34-2,0-.68-.25-1.22-.75-1.61-.68-.54-1.68-.81-2.99-.81-1.23,0-2.24.27-3.03.82-.79.55-1.36,1.32-1.71,2.33l-2.97-.26c.61-1.71,1.57-3.02,2.88-3.93,1.31-.91,2.97-1.36,4.97-1.36,2.13,0,3.82.51,5.06,1.52.95.76,1.43,1.74,1.43,2.96,0,.92-.13,1.98-.41,3.2l-.96,4.28c-.3,1.36-.45,2.47-.45,3.33,0,.54.12,1.32.36,2.34h-2.97c-.16-.56-.28-1.28-.34-2.14Zm1.09-6.59c-.41.16-.85.29-1.32.37-.47.09-1.26.18-2.36.28-1.71.15-2.92.34-3.62.58-.7.23-1.23.6-1.59,1.11-.36.51-.54,1.07-.54,1.69,0,.82.28,1.5.85,2.03.57.53,1.38.8,2.43.8.97,0,1.91-.26,2.81-.77s1.61-1.23,2.13-2.15c.52-.92.93-2.23,1.22-3.93Z"/>
    <path class="cls-3" d="m309.4,621.27c-1.68,1.93-3.43,2.89-5.26,2.89-1.63,0-2.99-.6-4.08-1.81-1.09-1.21-1.63-2.96-1.63-5.25,0-2.1.43-4.02,1.29-5.75.86-1.74,1.94-3.04,3.23-3.9,1.29-.87,2.59-1.3,3.89-1.3,2.14,0,3.76,1.03,4.85,3.1l1.95-9.27h2.92l-4.97,23.79h-2.71l.52-2.5Zm-8.05-4.72c0,1.2.12,2.15.36,2.84.24.69.64,1.27,1.22,1.73.57.46,1.26.69,2.06.69,1.33,0,2.54-.69,3.62-2.08,1.45-1.84,2.17-4.11,2.17-6.82,0-1.36-.36-2.43-1.07-3.2-.71-.77-1.61-1.15-2.69-1.15-.7,0-1.34.16-1.92.47-.58.31-1.15.85-1.72,1.6-.57.75-1.05,1.71-1.44,2.87-.39,1.16-.58,2.17-.58,3.05Z"/>
    <path class="cls-3" d="m316.97,623.77l.7-3.33h3.34l-.6,2.91c-.37,1.74-.94,3.02-1.71,3.83-.77.81-1.69,1.28-2.73,1.4l.28-1.28c1.29-.36,2.14-1.53,2.55-3.52h-1.82Z"/>
    <path class="cls-3" d="m335.01,617.88l2.94-.18c0,.84.13,1.56.39,2.16s.74,1.08,1.44,1.46c.7.38,1.51.57,2.44.57,1.3,0,2.27-.26,2.92-.78.65-.52.97-1.13.97-1.83,0-.51-.19-.99-.58-1.44-.4-.45-1.38-1.01-2.93-1.68-1.55-.67-2.55-1.13-2.98-1.4-.73-.44-1.27-.97-1.64-1.57-.37-.6-.55-1.29-.55-2.07,0-1.36.54-2.53,1.62-3.51s2.6-1.46,4.54-1.46c2.16,0,3.81.5,4.94,1.5,1.13,1,1.72,2.32,1.76,3.95l-2.87.19c-.04-1.04-.41-1.86-1.1-2.47-.69-.61-1.67-.91-2.94-.91-1.02,0-1.81.23-2.37.7s-.84.97-.84,1.51.24,1.02.73,1.43c.32.28,1.16.71,2.52,1.3,2.25.98,3.67,1.74,4.25,2.31.93.9,1.4,1.99,1.4,3.28,0,.86-.26,1.69-.79,2.52s-1.33,1.48-2.4,1.97c-1.08.49-2.34.74-3.81.74-1.99,0-3.68-.49-5.08-1.48-1.4-.98-2.06-2.59-1.98-4.8Z"/>
    <path class="cls-3" d="m364.01,617.91l2.86.29c-.41,1.42-1.36,2.76-2.83,4.04-1.48,1.28-3.24,1.92-5.28,1.92-1.28,0-2.45-.3-3.51-.89-1.07-.59-1.88-1.45-2.43-2.57-.56-1.12-.84-2.41-.84-3.85,0-1.88.44-3.71,1.31-5.48s2-3.08,3.38-3.94c1.38-.86,2.88-1.29,4.5-1.29,2.06,0,3.7.64,4.93,1.91,1.23,1.28,1.84,3.02,1.84,5.23,0,.84-.08,1.71-.23,2.6h-12.69c-.04.34-.06.64-.06.91,0,1.61.37,2.84,1.11,3.69.74.85,1.65,1.27,2.72,1.27,1.01,0,2-.33,2.97-.99s1.73-1.61,2.27-2.86Zm-8.54-4.27h9.67c0-.3.02-.52.02-.65,0-1.47-.37-2.6-1.1-3.38-.74-.78-1.68-1.18-2.84-1.18-1.25,0-2.4.43-3.43,1.3-1.03.87-1.8,2.17-2.31,3.91Z"/>
    <path class="cls-3" d="m369.68,625.33l2.97.28c-.02.67.06,1.17.24,1.51.18.34.48.6.88.78.53.24,1.22.36,2.06.36,1.77,0,3.05-.46,3.83-1.38.51-.62.98-1.96,1.41-4.02l.29-1.4c-1.52,1.55-3.15,2.32-4.87,2.32s-3.2-.64-4.37-1.92c-1.17-1.28-1.76-3.1-1.76-5.44,0-1.94.46-3.72,1.39-5.34.93-1.62,2.03-2.85,3.3-3.67,1.28-.83,2.59-1.24,3.94-1.24,2.26,0,4,1.07,5.23,3.21l.58-2.82h2.69l-3.47,16.63c-.38,1.83-.88,3.25-1.49,4.28s-1.47,1.81-2.57,2.38c-1.1.56-2.37.85-3.81.85s-2.58-.18-3.58-.54c-1-.36-1.75-.88-2.24-1.57-.49-.69-.74-1.47-.74-2.36,0-.27.03-.56.08-.88Zm3.67-9.18c0,1.18.11,2.07.34,2.66.32.83.79,1.47,1.39,1.91.6.44,1.27.66,2,.66.96,0,1.92-.34,2.87-1.01.95-.68,1.72-1.72,2.31-3.14.59-1.42.88-2.77.88-4.06,0-1.42-.39-2.55-1.18-3.38-.78-.84-1.75-1.26-2.91-1.26-.71,0-1.41.19-2.08.58s-1.29.97-1.87,1.75c-.58.79-1.02,1.72-1.31,2.82-.3,1.09-.45,1.92-.45,2.48Z"/>
    <path class="cls-3" d="m400.09,620.65c-2.07,2.34-4.18,3.51-6.35,3.51-1.33,0-2.4-.38-3.22-1.14-.82-.76-1.22-1.7-1.22-2.8,0-.72.18-1.97.55-3.73l2.08-9.95h2.94l-2.31,11.02c-.19.92-.29,1.63-.29,2.14,0,.65.2,1.15.59,1.52.39.36.98.54,1.74.54.82,0,1.62-.2,2.41-.6.78-.4,1.46-.94,2.03-1.62.57-.68,1.03-1.49,1.39-2.42.24-.6.51-1.64.83-3.13l1.56-7.45h2.94l-3.6,17.23h-2.71l.65-3.12Z"/>
    <path class="cls-3" d="m406.81,623.77l3.6-17.23h2.6l-.73,3.52c.89-1.33,1.76-2.32,2.61-2.95.85-.64,1.72-.96,2.61-.96.58,0,1.3.21,2.16.63l-1.2,2.73c-.51-.37-1.06-.55-1.67-.55-1.03,0-2.08.57-3.16,1.72-1.08,1.15-1.93,3.21-2.55,6.18l-1.46,6.91h-2.79Z"/>
    <path class="cls-3" d="m417.76,623.77l3.6-17.23h2.94l-3.6,17.23h-2.94Zm4.29-20.47l.7-3.33h2.92l-.7,3.33h-2.92Z"/>
    <path class="cls-3" d="m436.88,621.27c-1.68,1.93-3.43,2.89-5.26,2.89-1.63,0-2.99-.6-4.08-1.81-1.09-1.21-1.63-2.96-1.63-5.25,0-2.1.43-4.02,1.29-5.75.86-1.74,1.94-3.04,3.23-3.9,1.29-.87,2.59-1.3,3.89-1.3,2.14,0,3.76,1.03,4.85,3.1l1.95-9.27h2.92l-4.97,23.79h-2.71l.52-2.5Zm-8.05-4.72c0,1.2.12,2.15.36,2.84s.64,1.27,1.22,1.73c.57.46,1.26.69,2.06.69,1.33,0,2.54-.69,3.62-2.08,1.45-1.84,2.17-4.11,2.17-6.82,0-1.36-.36-2.43-1.07-3.2s-1.61-1.15-2.69-1.15c-.7,0-1.34.16-1.92.47-.58.31-1.15.85-1.72,1.6-.57.75-1.05,1.71-1.44,2.87-.39,1.16-.58,2.17-.58,3.05Z"/>
    <path class="cls-3" d="m455.37,621.63c-1.02.88-2,1.52-2.94,1.92-.94.41-1.95.61-3.02.61-1.59,0-2.87-.47-3.85-1.4-.97-.94-1.46-2.13-1.46-3.59,0-.96.22-1.81.66-2.56s1.02-1.34,1.74-1.79c.72-.45,1.61-.77,2.66-.97.66-.13,1.91-.23,3.76-.31s3.17-.27,3.97-.58c.23-.8.34-1.47.34-2,0-.68-.25-1.22-.75-1.61-.68-.54-1.68-.81-2.99-.81-1.23,0-2.24.27-3.03.82-.78.55-1.35,1.32-1.71,2.33l-2.97-.26c.61-1.71,1.57-3.02,2.88-3.93,1.31-.91,2.97-1.36,4.98-1.36,2.13,0,3.82.51,5.06,1.52.95.76,1.43,1.74,1.43,2.96,0,.92-.14,1.98-.41,3.2l-.96,4.28c-.3,1.36-.45,2.47-.45,3.33,0,.54.12,1.32.36,2.34h-2.97c-.16-.56-.28-1.28-.34-2.14Zm1.09-6.59c-.41.16-.85.29-1.32.37-.47.09-1.26.18-2.36.28-1.71.15-2.92.34-3.62.58-.7.23-1.23.6-1.59,1.11s-.54,1.07-.54,1.69c0,.82.28,1.5.85,2.03.57.53,1.38.8,2.43.8.97,0,1.91-.26,2.81-.77s1.61-1.23,2.13-2.15.93-2.23,1.22-3.93Z"/>
    <path class="cls-3" d="m473.85,621.27c-1.68,1.93-3.43,2.89-5.26,2.89-1.63,0-2.99-.6-4.08-1.81-1.09-1.21-1.63-2.96-1.63-5.25,0-2.1.43-4.02,1.29-5.75.86-1.74,1.94-3.04,3.23-3.9,1.29-.87,2.59-1.3,3.89-1.3,2.14,0,3.76,1.03,4.85,3.1l1.95-9.27h2.92l-4.97,23.79h-2.71l.52-2.5Zm-8.05-4.72c0,1.2.12,2.15.36,2.84s.64,1.27,1.22,1.73c.57.46,1.26.69,2.06.69,1.33,0,2.54-.69,3.62-2.08,1.45-1.84,2.17-4.11,2.17-6.82,0-1.36-.36-2.43-1.07-3.2s-1.61-1.15-2.69-1.15c-.7,0-1.34.16-1.92.47-.58.31-1.15.85-1.72,1.6-.57.75-1.05,1.71-1.44,2.87-.39,1.16-.58,2.17-.58,3.05Z"/>
    <path class="cls-3" d="m488.85,630.42l.18-2.76c.61.17,1.19.26,1.77.26s1.08-.14,1.44-.41c.48-.36,1-1.03,1.56-2.01l.94-1.69-2.87-17.28h2.89l1.3,8.72c.26,1.72.48,3.44.67,5.16l7.71-13.88h3.07l-10.99,19.52c-1.06,1.9-2,3.16-2.82,3.78s-1.77.93-2.84.93c-.68,0-1.35-.11-2-.34Z"/>
    <path class="cls-3" d="m527.7,617.49l2.94.31c-.74,2.15-1.78,3.75-3.14,4.8-1.36,1.04-2.9,1.57-4.63,1.57-1.87,0-3.39-.61-4.55-1.82-1.16-1.21-1.74-2.91-1.74-5.08,0-1.88.37-3.73,1.12-5.55s1.81-3.2,3.2-4.15c1.39-.95,2.98-1.42,4.76-1.42s3.32.52,4.4,1.57c1.08,1.04,1.62,2.43,1.62,4.15l-2.89.19c-.01-1.09-.33-1.95-.95-2.56s-1.44-.93-2.46-.93c-1.18,0-2.2.37-3.07,1.12-.87.75-1.54,1.88-2.04,3.4s-.74,2.98-.74,4.39.32,2.58.97,3.31c.65.74,1.45,1.1,2.4,1.1s1.86-.36,2.74-1.09c.87-.73,1.55-1.83,2.05-3.31Z"/>
    <path class="cls-3" d="m532.42,623.77l3.6-17.23h2.6l-.73,3.52c.89-1.33,1.76-2.32,2.61-2.95.85-.64,1.72-.96,2.61-.96.58,0,1.3.21,2.16.63l-1.2,2.73c-.51-.37-1.06-.55-1.67-.55-1.03,0-2.08.57-3.16,1.72-1.08,1.15-1.93,3.21-2.55,6.18l-1.46,6.91h-2.79Z"/>
    <path class="cls-3" d="m556.15,617.91l2.86.29c-.41,1.42-1.35,2.76-2.83,4.04-1.48,1.28-3.24,1.92-5.28,1.92-1.28,0-2.45-.3-3.51-.89-1.07-.59-1.88-1.45-2.43-2.57-.56-1.12-.84-2.41-.84-3.85,0-1.88.44-3.71,1.31-5.48s2-3.08,3.38-3.94c1.38-.86,2.88-1.29,4.5-1.29,2.06,0,3.7.64,4.93,1.91,1.23,1.28,1.84,3.02,1.84,5.23,0,.84-.08,1.71-.23,2.6h-12.69c-.04.34-.07.64-.07.91,0,1.61.37,2.84,1.11,3.69s1.65,1.27,2.72,1.27c1.01,0,2-.33,2.97-.99s1.73-1.61,2.27-2.86Zm-8.54-4.27h9.67c.01-.3.02-.52.02-.65,0-1.47-.37-2.6-1.1-3.38-.74-.78-1.68-1.18-2.84-1.18-1.25,0-2.4.43-3.43,1.3-1.03.87-1.8,2.17-2.31,3.91Z"/>
    <path class="cls-3" d="m573.87,617.49l2.94.31c-.74,2.15-1.78,3.75-3.14,4.8-1.36,1.04-2.9,1.57-4.63,1.57-1.87,0-3.39-.61-4.55-1.82-1.16-1.21-1.74-2.91-1.74-5.08,0-1.88.37-3.73,1.12-5.55s1.81-3.2,3.2-4.15c1.39-.95,2.98-1.42,4.76-1.42s3.32.52,4.4,1.57c1.08,1.04,1.62,2.43,1.62,4.15l-2.89.19c-.01-1.09-.33-1.95-.95-2.56s-1.44-.93-2.46-.93c-1.18,0-2.2.37-3.07,1.12-.87.75-1.54,1.88-2.04,3.4s-.74,2.98-.74,4.39.32,2.58.97,3.31c.65.74,1.45,1.1,2.4,1.1s1.86-.36,2.74-1.09c.87-.73,1.55-1.83,2.05-3.31Z"/>
    <path class="cls-3" d="m578.48,623.77l3.6-17.23h2.94l-3.6,17.23h-2.94Zm4.29-20.47l.7-3.33h2.92l-.7,3.33h-2.92Z"/>
    <path class="cls-3" d="m585.96,623.77l3.6-17.23h2.94l-.6,2.84c1.09-1.22,2.07-2.07,2.93-2.53.86-.47,1.79-.7,2.8-.7,1.07,0,1.97.28,2.69.85s1.19,1.36,1.42,2.38c.88-1.08,1.8-1.89,2.77-2.43.97-.54,1.99-.8,3.06-.8,1.44,0,2.52.34,3.24,1.02.72.68,1.08,1.64,1.08,2.87,0,.53-.12,1.41-.37,2.63l-2.32,11.1h-2.94l2.37-11.39c.21-.93.31-1.6.31-2,0-.56-.18-1.01-.54-1.33-.36-.33-.86-.49-1.51-.49-.88,0-1.77.27-2.68.8s-1.61,1.22-2.12,2.09c-.5.86-.94,2.18-1.32,3.97l-1.75,8.36h-2.94l2.44-11.64c.17-.79.26-1.35.26-1.69,0-.56-.18-1.02-.53-1.36-.35-.35-.81-.52-1.37-.52-.83,0-1.71.27-2.62.8-.91.53-1.66,1.27-2.23,2.22-.57.95-1.04,2.3-1.41,4.05l-1.7,8.15h-2.94Z"/>
    <path class="cls-3" d="m613.55,623.77l3.6-17.23h2.94l-3.6,17.23h-2.94Zm4.29-20.47l.7-3.33h2.92l-.7,3.33h-2.92Z"/>
    <path class="cls-3" d="m633.71,617.91l2.86.29c-.41,1.42-1.35,2.76-2.83,4.04-1.48,1.28-3.24,1.92-5.28,1.92-1.28,0-2.45-.3-3.51-.89-1.07-.59-1.88-1.45-2.43-2.57-.56-1.12-.84-2.41-.84-3.85,0-1.88.44-3.71,1.31-5.48s2-3.08,3.38-3.94c1.38-.86,2.88-1.29,4.5-1.29,2.06,0,3.7.64,4.93,1.91,1.23,1.28,1.84,3.02,1.84,5.23,0,.84-.08,1.71-.23,2.6h-12.69c-.04.34-.07.64-.07.91,0,1.61.37,2.84,1.11,3.69s1.65,1.27,2.72,1.27c1.01,0,2-.33,2.97-.99s1.73-1.61,2.27-2.86Zm-8.54-4.27h9.67c.01-.3.02-.52.02-.65,0-1.47-.37-2.6-1.1-3.38-.74-.78-1.68-1.18-2.84-1.18-1.25,0-2.4.43-3.43,1.3-1.03.87-1.8,2.17-2.31,3.91Z"/>
    <path class="cls-3" d="m639.53,623.77l3.6-17.23h2.66l-.63,3c1.16-1.18,2.24-2.04,3.25-2.58,1-.54,2.03-.81,3.08-.81,1.39,0,2.49.38,3.29,1.14.8.76,1.19,1.77,1.19,3.03,0,.64-.14,1.64-.42,3.02l-2.19,10.44h-2.94l2.29-10.92c.23-1.06.34-1.84.34-2.35,0-.57-.2-1.04-.59-1.4s-.97-.54-1.71-.54c-1.5,0-2.84.54-4.02,1.62s-2.04,2.94-2.59,5.57l-1.67,8.02h-2.94Z"/>
    <path class="cls-3" d="m664.88,621.38l-.49,2.4c-.7.18-1.38.28-2.05.28-1.17,0-2.1-.29-2.79-.86-.52-.43-.78-1.02-.78-1.77,0-.38.14-1.25.42-2.61l2.09-10.01h-2.32l.47-2.27h2.32l.89-4.24,3.36-2.03-1.31,6.27h2.89l-.49,2.27h-2.87l-2,9.53c-.25,1.21-.37,1.94-.37,2.17,0,.35.1.61.3.8.2.18.53.28.98.28.65,0,1.23-.06,1.74-.19Z"/>
    <path class="cls-3" d="m667.77,617.23c0-3.36.99-6.15,2.97-8.36,1.63-1.82,3.78-2.73,6.43-2.73,2.08,0,3.75.65,5.02,1.95,1.27,1.3,1.91,3.05,1.91,5.26,0,1.98-.4,3.82-1.2,5.53-.8,1.7-1.94,3.01-3.42,3.92-1.48.91-3.03,1.36-4.67,1.36-1.34,0-2.56-.29-3.66-.86-1.1-.57-1.94-1.38-2.52-2.43s-.87-2.26-.87-3.64Zm2.94-.29c0,1.62.39,2.85,1.17,3.69.78.84,1.77,1.26,2.97,1.26.63,0,1.25-.13,1.87-.38s1.19-.64,1.72-1.16.98-1.11,1.35-1.78c.37-.67.67-1.38.9-2.15.34-1.07.5-2.1.5-3.08,0-1.56-.39-2.77-1.18-3.63-.78-.86-1.77-1.29-2.96-1.29-.92,0-1.76.22-2.52.66-.76.44-1.44,1.08-2.05,1.92s-1.06,1.83-1.35,2.95c-.29,1.12-.43,2.12-.43,2.99Z"/>
    <path class="cls-3" d="m689.41,623.77l.7-3.33h3.33l-.71,3.33h-3.31Zm11.1,0l.7-3.33h3.33l-.7,3.33h-3.33Zm11.12,0l.7-3.33h3.31l-.7,3.33h-3.31Z"/>
    <path class="cls-3" d="m719.74,623.77l.7-3.33h3.31l-.7,3.33h-3.31Zm1.85-6l1.8-12.92,1.02-4.87h3.55l-1.1,5.27-3.44,12.51h-1.83Z"/>
  </g>
</svg>